<svg version="1" xmlns="http://www.w3.org/2000/svg" width="256" height="256" viewBox="0 0 192.000000 192.000000"><path d="M81.1 39.3c-8 13.9-22.5 39.1-32.4 56.2-9.9 17.1-18.2 31.6-18.4 32.2-.4 1 7.9 1.3 39.6 1.3 22.1 0 40.1-.2 40.1-.4s-3.4-6.3-7.6-13.5l-7.6-13-10.3-.3-10.4-.3 10.7-18.7C90.7 72.5 95.7 64.1 96 64c.6 0 .9.5 27.8 47 11.6 20.1 21.4 37.3 21.7 38.2.7 1.7-2.8 1.8-63.8 1.8-50.3 0-64.7.3-65.5 1.3-1.5 1.8-14.3 24-14.5 25.2-.2.7 188.2.9 189 .1.3-.3-94.2-163.5-94.7-163.5-.3 0-7 11.3-14.9 25.2z"/><path d="M51 133.3c-6.5 2.2-7.6 10.3-1.9 13.2 5.3 2.8 15.9 1.1 15.9-2.6 0-1.4-3.2-1-5.4.6-2.6 1.9-6.1 1.9-8-.1-2.3-2.2-2-7.1.3-8.4 2.5-1.3 6.8-1.3 7.6 0 .3.5 1.8 1 3.3 1 2.6 0 2.6 0 .7-1.9-2.6-2.5-8.2-3.3-12.5-1.8zM24.2 140.2c-4 7-4.1 7.3-2 7.6 1.2.2 2.5-.3 3-1.2 1.2-2.1 10-2.2 11.8-.1 1.3 1.5 5.4 2.1 4.8.7-.1-.5-2.1-3.8-4.3-7.5-3.2-5.5-4.4-6.7-6.5-6.7-2.2 0-3.3 1.2-6.8 7.2zm8.6-.7c1.1 2.4 1 2.5-1.8 2.5-3.3 0-3.5-.3-2-3.1 1.4-2.6 2.5-2.4 3.8.6zM71 140.5c0 7.3.1 7.5 2.5 7.5s2.5-.2 2.5-6.5V135h5.5c3 0 5.5-.5 5.5-1 0-.6-3.3-1-8-1h-8v7.5zM91.3 140.2c-4 6.9-4.1 7.3-2.1 7.6 1.2.2 2.5-.3 3-1.2 1.2-2.1 10-2.2 11.8-.1 1.2 1.5 5 2.1 5 .9 0-.4-1.9-3.8-4.2-7.5-3.5-5.6-4.7-6.9-6.8-6.9-2.2 0-3.3 1.2-6.7 7.2zm8.3-1.5c2 2.7 1.7 3.3-1.6 3.3-3.4 0-3.5-.2-1.8-3 1.6-2.4 1.7-2.4 3.4-.3zM115 140.5c0 6.8.2 7.5 2 7.5 1.6 0 2-.7 2-3 0-2.9.2-3 4.6-3 5.8 0 8.4-1.4 8.4-4.5 0-3.3-2.7-4.5-10.4-4.5H115v7.5zm12-4.5c1.3.9 1.2 1.2-.5 2.6-2.9 2.2-6.9 1.4-7.3-1.4-.3-1.9.1-2.2 3-2.2 1.8 0 4 .5 4.8 1z"/></svg>